<svg viewBox="0 0 100 54" xmlns="http://www.w3.org/2000/svg" xmlns:xlink="http://www.w3.org/1999/xlink" width="100.000000" height="54.000000" fill="none" customFrame="#000000">
	<defs>
		<clipPath id="clipPath_0">
			<rect width="24.000000" height="20.250000" x="9.000000" y="17.000000" fill="rgb(255,255,255)" />
		</clipPath>
		<g id="pixso_custom_effect_0">
			<effect x="0.000000" y="4.000000" visibility="visible" fill="rgb(0,0,0)" fill-opacity="0.25" effectType="dropShadow" stdDeviation="4" radius="0" />
		</g>
		<filter id="filter_0" width="28.000000" height="25.187500" x="7.000000" y="18.531250" filterUnits="userSpaceOnUse" customEffect="url(#pixso_custom_effect_0)" color-interpolation-filters="sRGB">
			<feFlood flood-opacity="0" result="BackgroundImageFix" />
			<feOffset dx="0.000000" dy="4.000000" in="SourceAlpha" />
			<feGaussianBlur stdDeviation="1.33333337" />
			<feColorMatrix type="matrix" values="0 0 0 0 0 0 0 0 0 0 0 0 0 0 0 0 0 0 0.25 0 " />
			<feBlend result="effect_dropShadow_1" in2="BackgroundImageFix" mode="normal" />
			<feBlend result="shape" in="SourceGraphic" in2="effect_dropShadow_1" mode="normal" />
		</filter>
	</defs>
	<g id="Group 5">
		<rect id="Button" width="100.000000" height="54.000000" x="0.000000" y="0.000000" rx="27.000000" fill="rgb(0,203,166)" />
		<g id="Navigation / Globe" clip-path="url(#clipPath_0)" customFrame="url(#clipPath_0)">
			<rect id="Navigation / Globe" width="24.000000" height="20.250000" x="9.000000" y="17.000000" />
			<g filter="url(#filter_0)">
				<path id="Vector" d="M21 34.7188C16.0294 34.7188 12 31.3189 12 27.125C12 22.9311 16.0294 19.5312 21 19.5312C25.9706 19.5312 30 22.9311 30 27.125C30 31.3189 25.9706 34.7188 21 34.7188Z" fill-rule="evenodd" stroke="rgb(255,255,255)" stroke-linecap="round" stroke-linejoin="round" stroke-width="2.000000" />
			</g>
			<path id="Vector" d="M12 27.125L30 27.125" stroke="rgb(255,255,255)" stroke-linecap="round" stroke-linejoin="round" stroke-width="2.000000" />
			<path id="Vector" d="M21 34.7188C19.3431 34.7188 18 31.3189 18 27.125C18 22.9311 19.3431 19.5312 21 19.5312C22.6569 19.5312 24 22.9311 24 27.125C24 31.3189 22.6569 34.7188 21 34.7188Z" fill-rule="evenodd" stroke="rgb(255,255,255)" stroke-linecap="round" stroke-linejoin="round" stroke-width="2.000000" />
		</g>
		<path id="Онлайн" d="M44.38 27.5156L44.38 28.0547C44.38 28.9193 44.2628 29.6953 44.0284 30.3828C43.7941 31.0703 43.4633 31.6562 43.0363 32.1406C42.6092 32.6198 42.0988 32.987 41.505 33.2422C40.9165 33.4974 40.2628 33.625 39.5441 33.625C38.8305 33.625 38.1769 33.4974 37.5831 33.2422C36.9946 32.987 36.4842 32.6198 36.0519 32.1406C35.6196 31.6562 35.2836 31.0703 35.0441 30.3828C34.8097 29.6953 34.6925 28.9193 34.6925 28.0547L34.6925 27.5156C34.6925 26.6458 34.8097 25.8698 35.0441 25.1875C35.2784 24.5 35.6092 23.9141 36.0363 23.4297C36.4685 22.9453 36.979 22.5755 37.5675 22.3203C38.1613 22.0651 38.8149 21.9375 39.5284 21.9375C40.2472 21.9375 40.9008 22.0651 41.4894 22.3203C42.0831 22.5755 42.5935 22.9453 43.0206 23.4297C43.4529 23.9141 43.7863 24.5 44.0206 25.1875C44.2602 25.8698 44.38 26.6458 44.38 27.5156ZM42.0128 28.0547L42.0128 27.5C42.0128 26.8958 41.9581 26.3646 41.8488 25.9062C41.7394 25.4479 41.5779 25.0625 41.3644 24.75C41.1508 24.4375 40.8904 24.2031 40.5831 24.0469C40.2758 23.8854 39.9243 23.8047 39.5284 23.8047C39.1326 23.8047 38.781 23.8854 38.4738 24.0469C38.1717 24.2031 37.9139 24.4375 37.7003 24.75C37.492 25.0625 37.3331 25.4479 37.2238 25.9062C37.1144 26.3646 37.0597 26.8958 37.0597 27.5L37.0597 28.0547C37.0597 28.6536 37.1144 29.1849 37.2238 29.6484C37.3331 30.1068 37.4946 30.4948 37.7081 30.8125C37.9217 31.125 38.1821 31.362 38.4894 31.5234C38.7967 31.6849 39.1482 31.7656 39.5441 31.7656C39.9399 31.7656 40.2915 31.6849 40.5988 31.5234C40.906 31.362 41.1639 31.125 41.3722 30.8125C41.5805 30.4948 41.7394 30.1068 41.8488 29.6484C41.9581 29.1849 42.0128 28.6536 42.0128 28.0547ZM51.7159 28.4297L51.7159 30.1797L47.4191 30.1797L47.4191 28.4297L51.7159 28.4297ZM48.1691 25.0156L48.1691 33.4688L45.9191 33.4688L45.9191 25.0156L48.1691 25.0156ZM53.2394 25.0156L53.2394 33.4688L50.9816 33.4688L50.9816 25.0156L53.2394 25.0156ZM60.6769 25.0156L60.6769 26.7812L56.5206 26.7812L56.5206 25.0156L60.6769 25.0156ZM62.3253 25.0156L62.3253 33.4688L60.0753 33.4688L60.0753 25.0156L62.3253 25.0156ZM55.9581 25.0156L58.1691 25.0156L57.9425 29.2812C57.9113 29.8906 57.8462 30.4271 57.7472 30.8906C57.6482 31.3542 57.5154 31.75 57.3488 32.0781C57.1873 32.4062 56.992 32.6745 56.7628 32.8828C56.5389 33.0859 56.2758 33.2344 55.9738 33.3281C55.6769 33.4219 55.3488 33.4688 54.9894 33.4688L54.3019 33.4688L54.2784 31.6953L54.5675 31.6641C54.7342 31.6484 54.88 31.6016 55.005 31.5234C55.1352 31.4401 55.2446 31.3229 55.3331 31.1719C55.4269 31.0156 55.505 30.8203 55.5675 30.5859C55.63 30.3464 55.6795 30.0651 55.7159 29.7422C55.7576 29.4193 55.7863 29.0469 55.8019 28.625L55.9581 25.0156ZM68.63 31.5625L68.63 27.7969C68.63 27.526 68.5857 27.2943 68.4972 27.1016C68.4086 26.9036 68.2706 26.75 68.0831 26.6406C67.9008 26.5312 67.6639 26.4766 67.3722 26.4766C67.1222 26.4766 66.9061 26.5208 66.7238 26.6094C66.5415 26.6927 66.4008 26.8151 66.3019 26.9766C66.2029 27.1328 66.1534 27.3177 66.1534 27.5312L63.9034 27.5312C63.9034 27.1719 63.9868 26.8307 64.1534 26.5078C64.3201 26.1849 64.5623 25.901 64.88 25.6562C65.1977 25.4062 65.5753 25.2109 66.0128 25.0703C66.4555 24.9297 66.9503 24.8594 67.4972 24.8594C68.1534 24.8594 68.7368 24.9688 69.2472 25.1875C69.7576 25.4062 70.1586 25.7344 70.4503 26.1719C70.7472 26.6094 70.8956 27.1562 70.8956 27.8125L70.8956 31.4297C70.8956 31.8932 70.9243 32.2734 70.9816 32.5703C71.0389 32.862 71.1222 33.1172 71.2316 33.3359L71.2316 33.4688L68.9581 33.4688C68.8488 33.2396 68.7654 32.9531 68.7081 32.6094C68.6561 32.2604 68.63 31.9115 68.63 31.5625ZM68.9269 28.3203L68.9425 29.5938L67.6847 29.5938C67.3878 29.5938 67.13 29.6276 66.9113 29.6953C66.6925 29.763 66.5128 29.8594 66.3722 29.9844C66.2316 30.1042 66.1274 30.2448 66.0597 30.4062C65.9972 30.5677 65.9659 30.7448 65.9659 30.9375C65.9659 31.1302 66.0102 31.3047 66.0988 31.4609C66.1873 31.612 66.3149 31.7318 66.4816 31.8203C66.6482 31.9036 66.8436 31.9453 67.0675 31.9453C67.4061 31.9453 67.7003 31.8776 67.9503 31.7422C68.2003 31.6068 68.393 31.4401 68.5284 31.2422C68.6691 31.0443 68.742 30.8568 68.7472 30.6797L69.3409 31.6328C69.2576 31.8464 69.143 32.0677 68.9972 32.2969C68.8566 32.526 68.6769 32.7422 68.4581 32.9453C68.2394 33.1432 67.9764 33.3073 67.6691 33.4375C67.3618 33.5625 66.9972 33.625 66.5753 33.625C66.0389 33.625 65.5519 33.5182 65.1144 33.3047C64.6821 33.0859 64.3383 32.7865 64.0831 32.4062C63.8331 32.0208 63.7081 31.5833 63.7081 31.0938C63.7081 30.651 63.7915 30.2578 63.9581 29.9141C64.1248 29.5703 64.3696 29.2812 64.6925 29.0469C65.0206 28.8073 65.4295 28.6276 65.9191 28.5078C66.4086 28.3828 66.9764 28.3203 67.6222 28.3203L68.9269 28.3203ZM74.8722 30.3281L77.7081 25.0156L79.9581 25.0156L79.9581 33.4688L77.7081 33.4688L77.7081 28.1484L74.8722 33.4688L72.6222 33.4688L72.6222 25.0156L74.8722 25.0156L74.8722 30.3281ZM77.4503 21.6172L79.0519 21.6172C79.0519 22.0651 78.9399 22.4635 78.7159 22.8125C78.4972 23.1562 78.1847 23.4271 77.7784 23.625C77.3722 23.8177 76.893 23.9141 76.3409 23.9141C75.5024 23.9141 74.8383 23.7005 74.3488 23.2734C73.8644 22.8464 73.6222 22.2943 73.6222 21.6172L75.2159 21.6172C75.2159 21.888 75.2993 22.1302 75.4659 22.3438C75.6378 22.5573 75.9295 22.6641 76.3409 22.6641C76.7472 22.6641 77.0336 22.5573 77.2003 22.3438C77.367 22.1302 77.4503 21.888 77.4503 21.6172ZM87.4816 28.4297L87.4816 30.1797L83.1847 30.1797L83.1847 28.4297L87.4816 28.4297ZM83.9347 25.0156L83.9347 33.4688L81.6847 33.4688L81.6847 25.0156L83.9347 25.0156ZM89.005 25.0156L89.005 33.4688L86.7472 33.4688L86.7472 25.0156L89.005 25.0156Z" fill="rgb(255,255,255)" fill-rule="nonzero" />
	</g>
</svg>
