<svg viewBox="0 0 107 54" xmlns="http://www.w3.org/2000/svg" xmlns:xlink="http://www.w3.org/1999/xlink" width="107.000000" height="54.000000" fill="none" customFrame="#000000">
	<g id="Group 6">
		<rect id="Button" width="107.000000" height="54.000000" x="0.000000" y="0.000000" rx="27.000000" fill="rgb(0,203,166)" />
		<path id="Vector" d="M18.4 25.5L23.17 17.24C22.47 17.09 21.75 17 21 17C18.6 17 16.4 17.85 14.68 19.25L18.34 25.6L18.4 25.5ZM30.54 24C29.62 21.08 27.39 18.74 24.54 17.66L20.88 24L30.54 24ZM30.8 25L23.31 25L23.6 25.5L28.36 33.75C30 31.97 31 29.61 31 27C31 26.31 30.93 25.65 30.8 25ZM17.54 27L13.64 20.25C12.01 22.03 11 24.39 11 27C11 27.69 11.07 28.35 11.2 29L18.69 29L17.54 27ZM11.46 30C12.38 32.92 14.61 35.26 17.46 36.34L21.12 30L11.46 30ZM22.73 30L18.83 36.76C19.53 36.91 20.25 37 21 37C23.4 37 25.6 36.15 27.32 34.75L23.66 28.4L22.73 30Z" fill="rgb(255,255,255)" fill-rule="nonzero" />
		<path id="Снимок" d="M44.0115 29.6953L46.3474 29.6953C46.3005 30.4609 46.0896 31.1406 45.7146 31.7344C45.3448 32.3281 44.8266 32.7917 44.1599 33.125C43.4985 33.4583 42.7016 33.625 41.7693 33.625C41.0401 33.625 40.3865 33.5 39.8083 33.25C39.2302 32.9948 38.7354 32.6302 38.324 32.1562C37.9177 31.6823 37.6078 31.1094 37.3943 30.4375C37.1807 29.7656 37.074 29.013 37.074 28.1797L37.074 27.3906C37.074 26.5573 37.1833 25.8047 37.4021 25.1328C37.6261 24.4557 37.9438 23.8802 38.3552 23.4062C38.7719 22.9323 39.2693 22.5677 39.8474 22.3125C40.4255 22.0573 41.0714 21.9297 41.7849 21.9297C42.7328 21.9297 43.5323 22.1016 44.1833 22.4453C44.8396 22.7891 45.3474 23.263 45.7068 23.8672C46.0714 24.4714 46.2901 25.1589 46.363 25.9297L44.0193 25.9297C43.9932 25.4714 43.9021 25.0833 43.7458 24.7656C43.5896 24.4427 43.3526 24.2005 43.0349 24.0391C42.7224 23.8724 42.3057 23.7891 41.7849 23.7891C41.3943 23.7891 41.0531 23.862 40.7615 24.0078C40.4698 24.1536 40.225 24.375 40.0271 24.6719C39.8292 24.9688 39.6807 25.3438 39.5818 25.7969C39.488 26.2448 39.4412 26.7708 39.4412 27.375L39.4412 28.1797C39.4412 28.7682 39.4854 29.2865 39.574 29.7344C39.6625 30.1771 39.7979 30.5521 39.9802 30.8594C40.1677 31.1615 40.4073 31.3906 40.699 31.5469C40.9958 31.6979 41.3526 31.7734 41.7693 31.7734C42.2589 31.7734 42.6625 31.6953 42.9802 31.5391C43.2979 31.3828 43.5401 31.151 43.7068 30.8438C43.8787 30.5365 43.9802 30.1536 44.0115 29.6953ZM53.5349 28.4297L53.5349 30.1797L49.238 30.1797L49.238 28.4297L53.5349 28.4297ZM49.988 25.0156L49.988 33.4688L47.738 33.4688L47.738 25.0156L49.988 25.0156ZM55.0583 25.0156L55.0583 33.4688L52.8005 33.4688L52.8005 25.0156L55.0583 25.0156ZM59.0505 30.3281L61.8865 25.0156L64.1365 25.0156L64.1365 33.4688L61.8865 33.4688L61.8865 28.1484L59.0505 33.4688L56.8005 33.4688L56.8005 25.0156L59.0505 25.0156L59.0505 30.3281ZM71.0115 30.8828L73.2302 25.0156L75.0662 25.0156L71.7693 33.4688L70.2537 33.4688L66.9724 25.0156L68.8083 25.0156L71.0115 30.8828ZM68.2693 25.0156L68.2693 33.4688L66.0193 33.4688L66.0193 25.0156L68.2693 25.0156ZM73.8083 33.4688L73.8083 25.0156L76.0583 25.0156L76.0583 33.4688L73.8083 33.4688ZM77.6677 29.3281L77.6677 29.1641C77.6677 28.5443 77.7563 27.974 77.9333 27.4531C78.1104 26.9271 78.3682 26.4714 78.7068 26.0859C79.0453 25.7005 79.462 25.401 79.9568 25.1875C80.4516 24.9688 81.0193 24.8594 81.6599 24.8594C82.3005 24.8594 82.8708 24.9688 83.3708 25.1875C83.8708 25.401 84.2901 25.7005 84.6287 26.0859C84.9724 26.4714 85.2328 26.9271 85.4099 27.4531C85.587 27.974 85.6755 28.5443 85.6755 29.1641L85.6755 29.3281C85.6755 29.9427 85.587 30.513 85.4099 31.0391C85.2328 31.5599 84.9724 32.0156 84.6287 32.4062C84.2901 32.7917 83.8735 33.0911 83.3787 33.3047C82.8839 33.5182 82.3162 33.625 81.6755 33.625C81.0349 33.625 80.4646 33.5182 79.9646 33.3047C79.4698 33.0911 79.0505 32.7917 78.7068 32.4062C78.3682 32.0156 78.1104 31.5599 77.9333 31.0391C77.7563 30.513 77.6677 29.9427 77.6677 29.3281ZM79.9177 29.1641L79.9177 29.3281C79.9177 29.6823 79.949 30.013 80.0115 30.3203C80.074 30.6276 80.1729 30.8984 80.3083 31.1328C80.449 31.362 80.6313 31.5417 80.8552 31.6719C81.0792 31.8021 81.3526 31.8672 81.6755 31.8672C81.988 31.8672 82.2563 31.8021 82.4802 31.6719C82.7042 31.5417 82.8839 31.362 83.0193 31.1328C83.1547 30.8984 83.2537 30.6276 83.3162 30.3203C83.3839 30.013 83.4177 29.6823 83.4177 29.3281L83.4177 29.1641C83.4177 28.8203 83.3839 28.4974 83.3162 28.1953C83.2537 27.888 83.1521 27.6172 83.0115 27.3828C82.8761 27.1432 82.6964 26.9557 82.4724 26.8203C82.2485 26.6849 81.9776 26.6172 81.6599 26.6172C81.3422 26.6172 81.0714 26.6849 80.8474 26.8203C80.6287 26.9557 80.449 27.1432 80.3083 27.3828C80.1729 27.6172 80.074 27.888 80.0115 28.1953C79.949 28.4974 79.9177 28.8203 79.9177 29.1641ZM89.4568 25.0156L89.4568 33.4688L87.2068 33.4688L87.2068 25.0156L89.4568 25.0156ZM94.949 25.0156L91.3083 30.3047L89.0583 30.3047L88.7849 28.2266L90.2771 28.2266L92.0974 25.0156L94.949 25.0156ZM92.199 33.4688L90.1208 29.8984L92.0818 28.8125L95.2146 33.4688L92.199 33.4688Z" fill="rgb(255,255,255)" fill-rule="nonzero" />
	</g>
</svg>
