<svg viewBox="0 0 97 54" xmlns="http://www.w3.org/2000/svg" xmlns:xlink="http://www.w3.org/1999/xlink" width="97.000000" height="54.000000" fill="none" customFrame="#000000">
	<g id="Group 3">
		<rect id="Button" width="97.000000" height="54.000000" x="0.000000" y="0.000000" rx="27.000000" fill="rgb(0,203,166)" />
		<path id="Vector" d="M18.9882 29.6228L20.1791 30.8125L24.402 26.5938L20.1791 22.375L18.9882 23.5647L21.1672 25.75L13 25.75L13 27.4375L21.1672 27.4375L18.9882 29.6228ZM26.5135 19L14.6892 19C13.7517 19 13 19.7594 13 20.6875L13 24.0625L14.6892 24.0625L14.6892 20.6875L26.5135 20.6875L26.5135 32.5L14.6892 32.5L14.6892 29.125L13 29.125L13 32.5C13 33.4281 13.7517 34.1875 14.6892 34.1875L26.5135 34.1875C27.4426 34.1875 28.2027 33.4281 28.2027 32.5L28.2027 20.6875C28.2027 19.7594 27.4426 19 26.5135 19Z" fill="rgb(255,255,255)" fill-rule="nonzero" />
		<path id="Выйти" d="M38.4688 28.4766L35.5469 28.4766L35.5312 26.8672L37.9844 26.8672C38.4167 26.8672 38.7708 26.8125 39.0469 26.7031C39.3229 26.5885 39.5286 26.4245 39.6641 26.2109C39.8047 25.9922 39.875 25.7266 39.875 25.4141C39.875 25.0599 39.8073 24.7734 39.6719 24.5547C39.5417 24.3359 39.3359 24.1771 39.0547 24.0781C38.7786 23.9792 38.4219 23.9297 37.9844 23.9297L36.3594 23.9297L36.3594 33.4688L34.0156 33.4688L34.0156 22.0938L37.9844 22.0938C38.6458 22.0938 39.237 22.1562 39.7578 22.2812C40.2839 22.4062 40.7292 22.5964 41.0938 22.8516C41.4583 23.1068 41.737 23.4297 41.9297 23.8203C42.1224 24.2057 42.2188 24.6641 42.2188 25.1953C42.2188 25.6641 42.112 26.0964 41.8984 26.4922C41.6901 26.888 41.3594 27.2109 40.9062 27.4609C40.4583 27.7109 39.8724 27.849 39.1484 27.875L38.4688 28.4766ZM38.3672 33.4688L34.9062 33.4688L35.8203 31.6406L38.3672 31.6406C38.7786 31.6406 39.1146 31.5755 39.375 31.4453C39.6354 31.3099 39.8281 31.1276 39.9531 30.8984C40.0781 30.6693 40.1406 30.4062 40.1406 30.1094C40.1406 29.776 40.0833 29.487 39.9688 29.2422C39.8594 28.9974 39.6823 28.8099 39.4375 28.6797C39.1927 28.5443 38.8698 28.4766 38.4688 28.4766L36.2109 28.4766L36.2266 26.8672L39.0391 26.8672L39.5781 27.5C40.2708 27.4896 40.8281 27.612 41.25 27.8672C41.6771 28.1172 41.987 28.4427 42.1797 28.8438C42.3776 29.2448 42.4766 29.6745 42.4766 30.1328C42.4766 30.862 42.3177 31.4766 42 31.9766C41.6823 32.4714 41.2161 32.8438 40.6016 33.0938C39.9922 33.3438 39.2474 33.4688 38.3672 33.4688ZM45.6484 27.5234L48.1016 27.5234C48.8724 27.5234 49.5286 27.651 50.0703 27.9062C50.6172 28.1562 51.0339 28.5052 51.3203 28.9531C51.612 29.401 51.7578 29.9193 51.7578 30.5078C51.7578 30.9349 51.6745 31.3307 51.5078 31.6953C51.3464 32.0547 51.1094 32.3672 50.7969 32.6328C50.4844 32.8984 50.1016 33.1042 49.6484 33.25C49.1953 33.3958 48.6797 33.4688 48.1016 33.4688L44.2422 33.4688L44.2422 25.0156L46.5 25.0156L46.5 31.7188L48.1016 31.7188C48.4401 31.7188 48.7109 31.6641 48.9141 31.5547C49.1224 31.4401 49.2734 31.2917 49.3672 31.1094C49.4661 30.9271 49.5156 30.7292 49.5156 30.5156C49.5156 30.2917 49.4661 30.0885 49.3672 29.9062C49.2734 29.7188 49.1224 29.5677 48.9141 29.4531C48.7109 29.3385 48.4401 29.2812 48.1016 29.2812L45.6484 29.2812L45.6484 27.5234ZM55.3672 25.0156L55.3672 33.4688L53.1172 33.4688L53.1172 25.0156L55.3672 25.0156ZM59.5859 30.3281L62.4219 25.0156L64.6719 25.0156L64.6719 33.4688L62.4219 33.4688L62.4219 28.1484L59.5859 33.4688L57.3359 33.4688L57.3359 25.0156L59.5859 25.0156L59.5859 30.3281ZM62.1641 21.6172L63.7656 21.6172C63.7656 22.0651 63.6536 22.4635 63.4297 22.8125C63.2109 23.1562 62.8984 23.4271 62.4922 23.625C62.0859 23.8177 61.6068 23.9141 61.0547 23.9141C60.2161 23.9141 59.5521 23.7005 59.0625 23.2734C58.5781 22.8464 58.3359 22.2943 58.3359 21.6172L59.9297 21.6172C59.9297 21.888 60.013 22.1302 60.1797 22.3438C60.3516 22.5573 60.6432 22.6641 61.0547 22.6641C61.4609 22.6641 61.7474 22.5573 61.9141 22.3438C62.0807 22.1302 62.1641 21.888 62.1641 21.6172ZM70.7109 25.0156L70.7109 33.4688L68.4531 33.4688L68.4531 25.0156L70.7109 25.0156ZM73.4297 25.0156L73.4297 26.7578L65.7734 26.7578L65.7734 25.0156L73.4297 25.0156ZM76.8203 30.3281L79.6562 25.0156L81.9062 25.0156L81.9062 33.4688L79.6562 33.4688L79.6562 28.1484L76.8203 33.4688L74.5703 33.4688L74.5703 25.0156L76.8203 25.0156L76.8203 30.3281Z" fill="rgb(255,255,255)" fill-rule="nonzero" />
	</g>
</svg>
