<svg viewBox="0 0 24 24" xmlns="http://www.w3.org/2000/svg" xmlns:xlink="http://www.w3.org/1999/xlink" width="24.000000" height="24.000000" fill="none">
	<rect id="Lock" width="24.000000" height="24.000000" x="0.000000" y="0.000000" fill="rgb(255,255,255)" fill-opacity="0" />
	<path id="Vector" d="M12 1C8.67619 1 6 3.67619 6 7L6 8C4.9 8 4 8.9 4 10L4 20C4 21.1 4.9 22 6 22L18 22C19.1 22 20 21.1 20 20L20 10C20 8.9 19.1 8 18 8L18 7C18 3.67619 15.3238 1 12 1ZM12 3C14.2762 3 16 4.72381 16 7L16 8L8 8L8 7C8 4.72381 9.72381 3 12 3ZM12 13C13.1 13 14 13.9 14 15C14 16.1 13.1 17 12 17C10.9 17 10 16.1 10 15C10 13.9 10.9 13 12 13Z" fill="rgb(0,203,166)" fill-rule="nonzero" />
</svg>
